M48
;Layer_Color=9474304
;FILE_FORMAT=4:3
METRIC,LZ
;TYPE=PLATED
T1F00S00C0.700
T2F00S00C0.800
T3F00S00C0.850
T4F00S00C0.900
T5F00S00C1.000
T6F00S00C1.020
T7F00S00C1.270
T8F00S00C2.500
%
T01
X0052197Y0007239
X0067691Y0006858
Y0014478
X0060605Y0022479
X0057505
X0052197Y0014859
X0005715Y0040894
Y0048514
T02
X0099695Y0036703
Y0039243
Y0041783
Y0044323
Y0046863
Y0049403
X0081661
Y0046863
Y0044323
Y0041783
Y0039243
Y0036703
Y0051943
Y0054483
X0099695
Y0051943
T03
X0101854Y0020574
Y0028194
X0070485Y0050292
X0062865
X0012065Y0045085
X0010287Y0028194
Y0020574
X0012065Y0052705
X0033274Y00635
X0040894
X0056007Y005969
X0063627
X0080391Y0071501
X0088011
T04
X0087249Y0007112
Y0009652
X0095885
X0098425
X0087249Y0012192
Y0014732
X0050673Y003302
Y003556
X0048514Y0048641
X0035179Y004699
Y004445
Y004191
X0026543Y0041656
Y0039116
Y0036576
Y0034036
Y0031496
Y0028956
Y0026416
Y0023876
Y0021336
X0018923
Y0023876
Y0026416
Y0028956
Y0031496
Y0034036
Y0036576
Y0039116
Y0041656
Y0044196
Y0046736
Y0049276
X0026543
Y0046736
Y0044196
X0040005Y002794
Y00254
X0008382Y0077724
X0005842
X0018923Y0054356
Y0051816
X0026543
Y0054356
X0048514Y0051181
X0073914Y0061468
Y0064008
T05
X0053213Y0077978
X0055753
X0058293
T06
X0009779Y0008001
Y0010541
X0012319
X0014859
Y0008001
X0012319
T07
X0032893Y0013716
X0035433
X0022479Y0070739
X0019939
T08
X0003048Y000254
X0101219Y0003048
X0003302Y0083566
X0100457Y0083312
M30
