M48
;Layer_Color=9474304
;FILE_FORMAT=4:3
METRIC,LZ
;TYPE=PLATED
T1F00S00C1.016
%
T01
X0004699Y0004699
X0010414
Y0012319
X0004699
X0016764
Y0004699
X0021463Y0003683
X0029083
X0024003Y000889
X0030099Y0012954
Y0015494
X0029591Y0022098
Y0024638
X0025212Y0023368
Y0020828
Y0025908
Y0028448
X0027813Y0032766
X0027686Y0036449
X0032258Y0034671
Y0032131
X0035433Y0027051
Y0019431
X0024003Y001651
X0017272Y0020828
Y0023368
Y0025908
Y0028448
X0016256Y0032893
Y0036449
X0020066
X0020193Y0032766
X0008636Y0032893
Y0036449
X0012352Y002794
Y00254
Y002286
Y002032
X0004412
Y002286
Y00254
Y002794
M30
