G04*
G04 #@! TF.GenerationSoftware,Altium Limited,Altium Designer,22.1.2 (22)*
G04*
G04 Layer_Color=16711935*
%FSLAX43Y43*%
%MOMM*%
G71*
G04*
G04 #@! TF.SameCoordinates,87715656-2F0B-43DF-9688-F49D06068116*
G04*
G04*
G04 #@! TF.FilePolarity,Negative*
G04*
G01*
G75*
%ADD14C,1.727*%
%ADD15R,1.727X1.727*%
%ADD16R,1.727X1.727*%
%ADD17C,1.803*%
D14*
X32258Y32131D02*
D03*
X16256Y36449D02*
D03*
X8636D02*
D03*
X20066D02*
D03*
X27686D02*
D03*
X8636Y32893D02*
D03*
X16256D02*
D03*
X20193Y32766D02*
D03*
X27813D02*
D03*
X17272Y25908D02*
D03*
Y23368D02*
D03*
Y20828D02*
D03*
X25212D02*
D03*
Y23368D02*
D03*
Y25908D02*
D03*
Y28448D02*
D03*
X4412Y25400D02*
D03*
Y22860D02*
D03*
Y20320D02*
D03*
X12352D02*
D03*
Y22860D02*
D03*
Y25400D02*
D03*
Y27940D02*
D03*
X35433Y27051D02*
D03*
Y19431D02*
D03*
X29591Y22098D02*
D03*
X24003Y16510D02*
D03*
Y8890D02*
D03*
X16764Y12319D02*
D03*
Y4699D02*
D03*
X4699Y12319D02*
D03*
Y4699D02*
D03*
X29083Y3683D02*
D03*
X21463D02*
D03*
X10414Y12319D02*
D03*
Y4699D02*
D03*
D15*
X32258Y34671D02*
D03*
X29591Y24638D02*
D03*
D16*
X17272Y28448D02*
D03*
X4412Y27940D02*
D03*
D17*
X30099Y15494D02*
D03*
Y12954D02*
D03*
M02*
