G04*
G04 #@! TF.GenerationSoftware,Altium Limited,Altium Designer,22.1.2 (22)*
G04*
G04 Layer_Physical_Order=1*
G04 Layer_Color=255*
%FSLAX43Y43*%
%MOMM*%
G71*
G04*
G04 #@! TF.SameCoordinates,87715656-2F0B-43DF-9688-F49D06068116*
G04*
G04*
G04 #@! TF.FilePolarity,Positive*
G04*
G01*
G75*
%ADD13C,0.254*%
%ADD18C,1.270*%
%ADD19C,1.524*%
%ADD20R,1.524X1.524*%
%ADD21R,1.524X1.524*%
%ADD22C,1.600*%
D13*
X2286Y40005D02*
Y41528D01*
X3048D01*
X3302Y41274D01*
Y40767D01*
X3048Y40513D01*
X2286D01*
X2794D02*
X3302Y40005D01*
X4063Y41021D02*
X4571D01*
X4825Y40767D01*
Y40005D01*
X4063D01*
X3810Y40259D01*
X4063Y40513D01*
X4825D01*
X5333Y41021D02*
Y40259D01*
X5587Y40005D01*
X6349D01*
Y39751D01*
X6095Y39497D01*
X5841D01*
X6349Y40005D02*
Y41021D01*
X7110D02*
X7618D01*
X7872Y40767D01*
Y40005D01*
X7110D01*
X6857Y40259D01*
X7110Y40513D01*
X7872D01*
X8380Y40005D02*
Y41021D01*
X9142D01*
X9396Y40767D01*
Y40005D01*
X9904Y41528D02*
Y40005D01*
Y40767D01*
X10919D01*
Y41528D01*
Y40005D01*
D18*
X17321Y25859D02*
X17475D01*
X19177Y24157D01*
Y19479D02*
Y24157D01*
X16764Y17066D02*
X19177Y19479D01*
X16764Y12319D02*
Y17066D01*
X17272Y25908D02*
X17321Y25859D01*
X25212Y20828D02*
X25281D01*
X25916Y20193D02*
X30380D01*
X32882Y22695D02*
Y24500D01*
X35433Y27051D01*
X30380Y20193D02*
X32882Y22695D01*
X25281Y20828D02*
X25916Y20193D01*
X14859Y18415D02*
X17272Y20828D01*
X4412Y20320D02*
X7858D01*
X9763Y18415D01*
X14859D01*
X17223Y20877D02*
X17272Y20828D01*
X14812Y23134D02*
X17069Y20877D01*
X17223D01*
X14812Y23134D02*
Y25634D01*
X13141Y27305D02*
X14812Y25634D01*
X13056Y27305D02*
X13141D01*
X12421Y27940D02*
X13056Y27305D01*
X12352Y27940D02*
X12421D01*
X23876Y36449D02*
X27686D01*
X20193Y32766D02*
X23876Y36449D01*
X30162Y15557D02*
X31559D01*
X30099Y15494D02*
X30162Y15557D01*
X31559D02*
X35433Y19431D01*
X16256Y36449D02*
X20066D01*
X8636Y32893D02*
Y36449D01*
D19*
X32258Y32131D02*
D03*
X16256Y36449D02*
D03*
X8636D02*
D03*
X20066D02*
D03*
X27686D02*
D03*
X8636Y32893D02*
D03*
X16256D02*
D03*
X20193Y32766D02*
D03*
X27813D02*
D03*
X17272Y25908D02*
D03*
Y23368D02*
D03*
Y20828D02*
D03*
X25212D02*
D03*
Y23368D02*
D03*
Y25908D02*
D03*
Y28448D02*
D03*
X4412Y25400D02*
D03*
Y22860D02*
D03*
Y20320D02*
D03*
X12352D02*
D03*
Y22860D02*
D03*
Y25400D02*
D03*
Y27940D02*
D03*
X35433Y27051D02*
D03*
Y19431D02*
D03*
X29591Y22098D02*
D03*
X24003Y16510D02*
D03*
Y8890D02*
D03*
X16764Y12319D02*
D03*
Y4699D02*
D03*
X4699Y12319D02*
D03*
Y4699D02*
D03*
X29083Y3683D02*
D03*
X21463D02*
D03*
X10414Y12319D02*
D03*
Y4699D02*
D03*
D20*
X32258Y34671D02*
D03*
X29591Y24638D02*
D03*
D21*
X17272Y28448D02*
D03*
X4412Y27940D02*
D03*
D22*
X30099Y15494D02*
D03*
Y12954D02*
D03*
M02*
