G04*
G04 #@! TF.GenerationSoftware,Altium Limited,Altium Designer,22.3.1 (43)*
G04*
G04 Layer_Physical_Order=1*
G04 Layer_Color=255*
%FSLAX43Y43*%
%MOMM*%
G71*
G04*
G04 #@! TF.SameCoordinates,807CCD13-CB5B-4CC3-81D7-37C4D7C0FF8C*
G04*
G04*
G04 #@! TF.FilePolarity,Positive*
G04*
G01*
G75*
%ADD14C,0.254*%
%ADD29C,1.270*%
%ADD30R,1.500X1.500*%
%ADD31C,1.500*%
%ADD32R,1.500X1.500*%
%ADD33C,1.600*%
%ADD34R,1.600X1.600*%
%ADD35C,1.400*%
%ADD36C,1.308*%
%ADD37R,1.308X1.308*%
%ADD38C,1.778*%
%ADD39C,1.200*%
%ADD40C,1.300*%
%ADD41R,1.550X1.550*%
%ADD42C,1.550*%
D14*
X50673Y33020D02*
X98557D01*
X102935Y28642D01*
Y25303D02*
Y28642D01*
X101854Y24222D02*
X102935Y25303D01*
X101854Y20574D02*
Y24222D01*
X40005Y25400D02*
X48756Y34151D01*
X51303D01*
X51804Y34652D01*
Y39670D01*
X94753Y14616D02*
Y21093D01*
X87249Y7112D02*
X94753Y14616D01*
X86995Y6858D02*
X87249Y7112D01*
X94753Y21093D02*
X101854Y28194D01*
X67691Y6858D02*
X86995D01*
X67054Y7239D02*
X67435Y6858D01*
X52197Y7239D02*
X67054D01*
X67435Y6858D02*
X67691D01*
X34163Y12446D02*
X39370Y7239D01*
X32893Y13716D02*
X34163Y12446D01*
X39370Y7239D02*
X52197D01*
X12065Y52705D02*
Y60325D01*
X22479Y70739D01*
X49422Y50050D02*
X51804Y52432D01*
X47383Y49109D02*
X48324Y50050D01*
X51804Y52432D02*
Y55487D01*
X48324Y50050D02*
X49422D01*
X47383Y44091D02*
Y49109D01*
X45847Y36979D02*
X46245Y36581D01*
X49652D02*
X50673Y35560D01*
X47383Y44091D02*
X51804Y39670D01*
X45847Y36979D02*
Y48514D01*
X51804Y55487D02*
X56007Y59690D01*
X46245Y36581D02*
X49652D01*
X45847Y48514D02*
X48514Y51181D01*
X48731Y48641D02*
X50382Y50292D01*
X62865D01*
X48514Y48641D02*
X48731D01*
X70485Y50292D02*
X73914Y53721D01*
Y61468D01*
X72136Y59690D02*
X73914Y61468D01*
X63627Y59690D02*
X72136D01*
X63627D02*
Y74314D01*
X56934Y79159D02*
X58782D01*
X55753Y77978D02*
X56934Y79159D01*
X58782D02*
X63627Y74314D01*
X43815Y63500D02*
X58293Y77978D01*
X40894Y63500D02*
X43815D01*
X8382Y77724D02*
X52959D01*
X53213Y77978D01*
X7251Y77256D02*
Y77446D01*
X13768Y70739D02*
X19939D01*
X5842Y77724D02*
X6973D01*
X7251Y77446D01*
Y77256D02*
X13768Y70739D01*
X5715Y48514D02*
Y77597D01*
X5842Y77724D01*
X35179Y41910D02*
X36703Y40386D01*
Y13190D02*
Y40386D01*
X35959Y12446D02*
X36703Y13190D01*
X34163Y12446D02*
X35959D01*
X31968Y17181D02*
X35433Y13716D01*
X10287Y20574D02*
X13680Y17181D01*
X31968D01*
D29*
X3048Y2540D02*
D03*
X101219Y3048D02*
D03*
X100457Y83312D02*
D03*
X3302Y83566D02*
D03*
D30*
X40005Y27940D02*
D03*
X35179Y46990D02*
D03*
X50673Y35560D02*
D03*
X73914Y64008D02*
D03*
X48514Y51181D02*
D03*
X87249Y7112D02*
D03*
D31*
X40005Y25400D02*
D03*
X35179Y44450D02*
D03*
Y41910D02*
D03*
X8382Y77724D02*
D03*
X50673Y33020D02*
D03*
X26543Y21336D02*
D03*
Y23876D02*
D03*
Y26416D02*
D03*
Y28956D02*
D03*
Y31496D02*
D03*
Y34036D02*
D03*
Y36576D02*
D03*
Y39116D02*
D03*
Y41656D02*
D03*
Y44196D02*
D03*
Y46736D02*
D03*
Y49276D02*
D03*
Y51816D02*
D03*
Y54356D02*
D03*
X18923Y21336D02*
D03*
Y23876D02*
D03*
Y26416D02*
D03*
Y28956D02*
D03*
Y31496D02*
D03*
Y34036D02*
D03*
Y36576D02*
D03*
Y39116D02*
D03*
Y41656D02*
D03*
Y44196D02*
D03*
Y46736D02*
D03*
Y49276D02*
D03*
Y51816D02*
D03*
X73914Y61468D02*
D03*
X48514Y48641D02*
D03*
X98425Y9652D02*
D03*
X87249Y14732D02*
D03*
Y12192D02*
D03*
Y9652D02*
D03*
D32*
X5842Y77724D02*
D03*
X18923Y54356D02*
D03*
X95885Y9652D02*
D03*
D33*
X58293Y77978D02*
D03*
X55753D02*
D03*
D34*
X53213D02*
D03*
D35*
X88011Y71501D02*
D03*
X80391D02*
D03*
X12065Y52705D02*
D03*
Y45085D02*
D03*
X40894Y63500D02*
D03*
X33274D02*
D03*
X101854Y20574D02*
D03*
Y28194D02*
D03*
X62865Y50292D02*
D03*
X70485D02*
D03*
X56007Y59690D02*
D03*
X63627D02*
D03*
X10287Y20574D02*
D03*
Y28194D02*
D03*
D36*
X99695Y36703D02*
D03*
X81661D02*
D03*
X99695Y54483D02*
D03*
Y39243D02*
D03*
X81661D02*
D03*
X99695Y51943D02*
D03*
X81661D02*
D03*
X99695Y41783D02*
D03*
Y49403D02*
D03*
X81661D02*
D03*
Y41783D02*
D03*
X99695Y44323D02*
D03*
Y46863D02*
D03*
X81661Y44323D02*
D03*
Y46863D02*
D03*
D37*
Y54483D02*
D03*
D38*
X22479Y70739D02*
D03*
X19939D02*
D03*
X35433Y13716D02*
D03*
X32893D02*
D03*
D39*
X5715Y40894D02*
D03*
Y48514D02*
D03*
X67691Y14478D02*
D03*
Y6858D02*
D03*
X52197Y14859D02*
D03*
Y7239D02*
D03*
D40*
X57505Y22479D02*
D03*
X60605D02*
D03*
D41*
X14859Y10541D02*
D03*
D42*
Y8001D02*
D03*
X12319Y10541D02*
D03*
X9779D02*
D03*
X12319Y8001D02*
D03*
X9779D02*
D03*
M02*
