G04*
G04 #@! TF.GenerationSoftware,Altium Limited,Altium Designer,22.3.1 (43)*
G04*
G04 Layer_Color=65535*
%FSLAX43Y43*%
%MOMM*%
G71*
G04*
G04 #@! TF.SameCoordinates,807CCD13-CB5B-4CC3-81D7-37C4D7C0FF8C*
G04*
G04*
G04 #@! TF.FilePolarity,Positive*
G04*
G01*
G75*
%ADD10C,0.250*%
%ADD11C,0.200*%
%ADD12C,0.600*%
%ADD13C,0.127*%
%ADD14C,0.254*%
D10*
X50128Y77978D02*
G03*
X50128Y77978I-125J0D01*
G01*
X19048Y55656D02*
G03*
X19048Y55656I-125J0D01*
G01*
X96010Y11702D02*
G03*
X96010Y11702I-125J0D01*
G01*
X16904Y10541D02*
G03*
X16904Y10541I-125J0D01*
G01*
D11*
X79978Y54483D02*
G03*
X79978Y54483I-100J0D01*
G01*
X22098Y55546D02*
G03*
X23368Y55546I635J0D01*
G01*
X57900Y21457D02*
G03*
X60244Y21473I1165J1022D01*
G01*
X60234Y23485D02*
G03*
X57890Y23501I-1179J-1006D01*
G01*
X38735Y24130D02*
X41275D01*
X38735D02*
Y29210D01*
X41275D01*
Y24130D02*
Y29210D01*
X33909Y40640D02*
Y48260D01*
Y40640D02*
X36449D01*
Y48260D01*
X33909D02*
X36449D01*
X9652Y76454D02*
Y78994D01*
X4572Y76454D02*
X9652D01*
X4572D02*
Y78994D01*
X9652D01*
X50653Y80138D02*
X60853D01*
X50653Y80638D02*
X60853D01*
X50653Y75938D02*
X60853D01*
Y80638D01*
X50653Y75938D02*
Y80638D01*
X86741Y71501D02*
Y72263D01*
X81661D02*
X86741D01*
X81661Y70739D02*
Y72263D01*
Y70739D02*
X86741D01*
Y71501D01*
X81432D02*
X81661D01*
X86741D02*
X86970D01*
X49403Y31750D02*
X51943D01*
X49403D02*
Y36830D01*
X51943D01*
Y31750D02*
Y36830D01*
X11303Y51435D02*
X12065D01*
X11303Y46355D02*
Y51435D01*
Y46355D02*
X12827D01*
Y51435D01*
X12065D02*
X12827D01*
X12065Y46126D02*
Y46355D01*
Y51435D02*
Y51664D01*
X20083Y20146D02*
X25383D01*
X23368Y55546D02*
X25383D01*
X20083D02*
X22098D01*
X25383Y20146D02*
Y55546D01*
X20083Y20146D02*
Y55546D01*
X72644Y60198D02*
X75184D01*
X72644D02*
Y65278D01*
X75184D01*
Y60198D02*
Y65278D01*
X39624Y63500D02*
Y64262D01*
X34544D02*
X39624D01*
X34544Y62738D02*
Y64262D01*
Y62738D02*
X39624D01*
Y63500D01*
X34315D02*
X34544D01*
X39624D02*
X39853D01*
X47244Y47371D02*
X49784D01*
X47244D02*
Y52451D01*
X49784D01*
Y47371D02*
Y52451D01*
X3810Y38989D02*
X7620D01*
X3810D02*
Y50419D01*
X7620D01*
Y38989D02*
Y50419D01*
X101854Y21844D02*
X102616D01*
Y26924D01*
X101092D02*
X102616D01*
X101092Y21844D02*
Y26924D01*
Y21844D02*
X101854D01*
Y26924D02*
Y27153D01*
Y21615D02*
Y21844D01*
X64135Y49530D02*
Y50292D01*
Y49530D02*
X69215D01*
Y51054D01*
X64135D02*
X69215D01*
X64135Y50292D02*
Y51054D01*
X69215Y50292D02*
X69444D01*
X63906D02*
X64135D01*
X94485Y8252D02*
X99825D01*
X94485Y11052D02*
X99825D01*
Y8252D02*
Y11052D01*
X94485Y8252D02*
Y11052D01*
X85979Y5842D02*
X88519D01*
X85979D02*
Y16002D01*
X88519Y5842D02*
Y16002D01*
X85979D02*
X88519D01*
X57277Y58928D02*
Y59690D01*
Y58928D02*
X62357D01*
Y60452D01*
X57277D02*
X62357D01*
X57277Y59690D02*
Y60452D01*
X62357Y59690D02*
X62586D01*
X57048D02*
X57277D01*
X10287Y21844D02*
X11049D01*
Y26924D01*
X9525D02*
X11049D01*
X9525Y21844D02*
Y26924D01*
Y21844D02*
X10287D01*
Y26924D02*
Y27153D01*
Y21615D02*
Y21844D01*
X8509Y6731D02*
X16129D01*
Y11811D01*
X8509D02*
X16129D01*
X8509Y6731D02*
Y11811D01*
X65786Y16383D02*
X69596D01*
Y4953D02*
Y16383D01*
X65786Y4953D02*
X69596D01*
X65786D02*
Y16383D01*
X50292Y16764D02*
X54102D01*
Y5334D02*
Y16764D01*
X50292Y5334D02*
X54102D01*
X50292D02*
Y16764D01*
D12*
X21383Y54546D02*
G03*
X21383Y54546I-300J0D01*
G01*
D13*
X18796Y62992D02*
G03*
X23622Y62992I2413J0D01*
G01*
X31750Y5969D02*
G03*
X36576Y5969I2413J0D01*
G01*
X80518Y35433D02*
X100838D01*
Y55753D01*
X80518D02*
X100838D01*
X80518Y35433D02*
Y55753D01*
X18161Y65532D02*
Y74549D01*
Y65532D02*
X24257D01*
Y74549D01*
X18796Y62992D02*
Y65532D01*
X23622Y62992D02*
Y65532D01*
X18161Y74549D02*
X19304D01*
Y72009D02*
Y74549D01*
Y72009D02*
X23114D01*
Y74549D01*
X24257D01*
X31115Y8509D02*
Y17526D01*
Y8509D02*
X37211D01*
Y17526D01*
X31750Y5969D02*
Y8509D01*
X36576Y5969D02*
Y8509D01*
X31115Y17526D02*
X32258D01*
Y14986D02*
Y17526D01*
Y14986D02*
X36068D01*
Y17526D01*
X37211D01*
D14*
X89916Y77724D02*
Y76200D01*
X90678D01*
X90932Y76454D01*
Y77470D01*
X90678Y77724D01*
X89916D01*
X91440D02*
X91947D01*
X91693D01*
Y76200D01*
X91440D01*
X91947D01*
X93725Y77470D02*
X93471Y77724D01*
X92963D01*
X92709Y77470D01*
Y77216D01*
X92963Y76962D01*
X93471D01*
X93725Y76708D01*
Y76454D01*
X93471Y76200D01*
X92963D01*
X92709Y76454D01*
X94233Y76200D02*
Y77724D01*
X94994D01*
X95248Y77470D01*
Y76962D01*
X94994Y76708D01*
X94233D01*
X96518Y77724D02*
X96010D01*
X95756Y77470D01*
Y76454D01*
X96010Y76200D01*
X96518D01*
X96772Y76454D01*
Y77470D01*
X96518Y77724D01*
X98295Y77470D02*
X98041Y77724D01*
X97534D01*
X97280Y77470D01*
Y77216D01*
X97534Y76962D01*
X98041D01*
X98295Y76708D01*
Y76454D01*
X98041Y76200D01*
X97534D01*
X97280Y76454D01*
X99819Y77724D02*
X98803D01*
Y76200D01*
X99819D01*
X98803Y76962D02*
X99311D01*
X100327Y77724D02*
X100834D01*
X100581D01*
Y76200D01*
X100327D01*
X100834D01*
X101596Y77724D02*
X102612D01*
X102104D01*
Y76200D01*
X50013Y83210D02*
Y82194D01*
X50520Y81686D01*
X51028Y82194D01*
Y83210D01*
X51536Y81686D02*
Y83210D01*
X52298D01*
X52552Y82956D01*
Y82448D01*
X52298Y82194D01*
X51536D01*
X52044D02*
X52552Y81686D01*
X77902Y55778D02*
Y54508D01*
X78156Y54254D01*
X78664D01*
X78917Y54508D01*
Y55778D01*
X18313Y58191D02*
Y56921D01*
X18567Y56667D01*
X19075D01*
X19329Y56921D01*
Y58191D01*
X19837Y56667D02*
X20345D01*
X20091D01*
Y58191D01*
X19837Y57937D01*
X47396Y54838D02*
X48412D01*
X47904D01*
Y53315D01*
X48920Y54330D02*
Y53315D01*
Y53822D01*
X49174Y54076D01*
X49428Y54330D01*
X49682D01*
X50697D02*
X51205D01*
X51459Y54076D01*
Y53315D01*
X50697D01*
X50443Y53569D01*
X50697Y53822D01*
X51459D01*
X51967Y53315D02*
X52729D01*
X52983Y53569D01*
X52729Y53822D01*
X52221D01*
X51967Y54076D01*
X52221Y54330D01*
X52983D01*
X53490Y54838D02*
Y53315D01*
Y54076D01*
X53744Y54330D01*
X54252D01*
X54506Y54076D01*
Y53315D01*
X55014Y54838D02*
X55522D01*
X55268D01*
Y53315D01*
X55014D01*
X55522D01*
X56537Y54584D02*
Y54330D01*
X56284D01*
X56791D01*
X56537D01*
Y53569D01*
X56791Y53315D01*
X73812Y67411D02*
X73558Y67665D01*
X73050D01*
X72796Y67411D01*
Y67157D01*
X73050Y66903D01*
X73558D01*
X73812Y66649D01*
Y66396D01*
X73558Y66142D01*
X73050D01*
X72796Y66396D01*
X74320Y67157D02*
Y66396D01*
X74574Y66142D01*
X74828Y66396D01*
X75082Y66142D01*
X75336Y66396D01*
Y67157D01*
X75843Y66142D02*
X76351D01*
X76097D01*
Y67157D01*
X75843D01*
X77367Y67411D02*
Y67157D01*
X77113D01*
X77621D01*
X77367D01*
Y66396D01*
X77621Y66142D01*
X79398Y67157D02*
X78637D01*
X78383Y66903D01*
Y66396D01*
X78637Y66142D01*
X79398D01*
X79906Y67665D02*
Y66142D01*
Y66903D01*
X80160Y67157D01*
X80668D01*
X80922Y66903D01*
Y66142D01*
X32134Y31242D02*
Y30226D01*
Y30734D01*
X32388Y30988D01*
X32642Y31242D01*
X32896D01*
X34419Y30226D02*
X33911D01*
X33657Y30480D01*
Y30988D01*
X33911Y31242D01*
X34419D01*
X34673Y30988D01*
Y30734D01*
X33657D01*
X35181Y30226D02*
X35943D01*
X36196Y30480D01*
X35943Y30734D01*
X35435D01*
X35181Y30988D01*
X35435Y31242D01*
X36196D01*
X37466Y30226D02*
X36958D01*
X36704Y30480D01*
Y30988D01*
X36958Y31242D01*
X37466D01*
X37720Y30988D01*
Y30734D01*
X36704D01*
X38482Y31496D02*
Y31242D01*
X38228D01*
X38736D01*
X38482D01*
Y30480D01*
X38736Y30226D01*
X41021Y31750D02*
Y30226D01*
X41783D01*
X42037Y30480D01*
Y30734D01*
Y30988D01*
X41783Y31242D01*
X41021D01*
X42544D02*
Y30480D01*
X42798Y30226D01*
X43560D01*
Y31242D01*
X44322Y31496D02*
Y31242D01*
X44068D01*
X44576D01*
X44322D01*
Y30480D01*
X44576Y30226D01*
X45591Y31496D02*
Y31242D01*
X45337D01*
X45845D01*
X45591D01*
Y30480D01*
X45845Y30226D01*
X46861D02*
X47369D01*
X47623Y30480D01*
Y30988D01*
X47369Y31242D01*
X46861D01*
X46607Y30988D01*
Y30480D01*
X46861Y30226D01*
X48131D02*
Y31242D01*
X48892D01*
X49146Y30988D01*
Y30226D01*
X32006Y49911D02*
Y51435D01*
X32768D01*
X33022Y51181D01*
Y50673D01*
X32768Y50419D01*
X32006D01*
X32514D02*
X33022Y49911D01*
X34291D02*
X33783D01*
X33529Y50165D01*
Y50673D01*
X33783Y50927D01*
X34291D01*
X34545Y50673D01*
Y50419D01*
X33529D01*
X36069Y50927D02*
X35307D01*
X35053Y50673D01*
Y50165D01*
X35307Y49911D01*
X36069D01*
X36576Y50927D02*
Y50165D01*
X36830Y49911D01*
X37592D01*
Y49657D01*
X37338Y49403D01*
X37084D01*
X37592Y49911D02*
Y50927D01*
X39116D02*
X38354D01*
X38100Y50673D01*
Y50165D01*
X38354Y49911D01*
X39116D01*
X39624D02*
X40131D01*
X39877D01*
Y51435D01*
X39624D01*
X41655Y49911D02*
X41147D01*
X40893Y50165D01*
Y50673D01*
X41147Y50927D01*
X41655D01*
X41909Y50673D01*
Y50419D01*
X40893D01*
X42417Y51435D02*
X42924D01*
X42671D01*
Y49911D01*
X42417D01*
X42924D01*
X43940Y51181D02*
Y50927D01*
X43686D01*
X44194D01*
X43940D01*
Y50165D01*
X44194Y49911D01*
X55448Y61316D02*
Y62839D01*
X56210D01*
X56464Y62585D01*
Y62077D01*
X56210Y61823D01*
X55448D01*
X55956D02*
X56464Y61316D01*
X56972Y62839D02*
X57987D01*
Y62585D01*
X56972Y61570D01*
Y61316D01*
X62306Y51918D02*
Y53441D01*
X63068D01*
X63322Y53187D01*
Y52679D01*
X63068Y52425D01*
X62306D01*
X62814D02*
X63322Y51918D01*
X64845Y53441D02*
X64338Y53187D01*
X63830Y52679D01*
Y52172D01*
X64084Y51918D01*
X64591D01*
X64845Y52172D01*
Y52425D01*
X64591Y52679D01*
X63830D01*
X101244Y29769D02*
Y31292D01*
X102006D01*
X102260Y31038D01*
Y30531D01*
X102006Y30277D01*
X101244D01*
X101752D02*
X102260Y29769D01*
X103784Y31292D02*
X102768D01*
Y30531D01*
X103276Y30784D01*
X103530D01*
X103784Y30531D01*
Y30023D01*
X103530Y29769D01*
X103022D01*
X102768Y30023D01*
X9677Y29769D02*
Y31292D01*
X10439D01*
X10693Y31038D01*
Y30531D01*
X10439Y30277D01*
X9677D01*
X10185D02*
X10693Y29769D01*
X11963D02*
Y31292D01*
X11201Y30531D01*
X12217D01*
X11455Y54280D02*
Y55803D01*
X12217D01*
X12471Y55549D01*
Y55042D01*
X12217Y54788D01*
X11455D01*
X11963D02*
X12471Y54280D01*
X12979Y55549D02*
X13233Y55803D01*
X13741D01*
X13995Y55549D01*
Y55295D01*
X13741Y55042D01*
X13487D01*
X13741D01*
X13995Y54788D01*
Y54534D01*
X13741Y54280D01*
X13233D01*
X12979Y54534D01*
X79832Y73127D02*
Y74650D01*
X80594D01*
X80848Y74396D01*
Y73888D01*
X80594Y73634D01*
X79832D01*
X80340D02*
X80848Y73127D01*
X82371D02*
X81356D01*
X82371Y74142D01*
Y74396D01*
X82117Y74650D01*
X81610D01*
X81356Y74396D01*
X32715Y65126D02*
Y66649D01*
X33477D01*
X33731Y66395D01*
Y65887D01*
X33477Y65633D01*
X32715D01*
X33223D02*
X33731Y65126D01*
X34239D02*
X34747D01*
X34493D01*
Y66649D01*
X34239Y66395D01*
X8636Y13208D02*
Y14732D01*
X9398D01*
X9652Y14478D01*
Y13970D01*
X9398Y13716D01*
X8636D01*
X10160Y14224D02*
Y13208D01*
Y13716D01*
X10413Y13970D01*
X10667Y14224D01*
X10921D01*
X11937Y13208D02*
X12445D01*
X12699Y13462D01*
Y13970D01*
X12445Y14224D01*
X11937D01*
X11683Y13970D01*
Y13462D01*
X11937Y13208D01*
X13714Y12700D02*
X13968D01*
X14222Y12954D01*
Y14224D01*
X13460D01*
X13207Y13970D01*
Y13462D01*
X13460Y13208D01*
X14222D01*
X14730Y14224D02*
Y13208D01*
Y13716D01*
X14984Y13970D01*
X15238Y14224D01*
X15492D01*
X16507D02*
X17015D01*
X17269Y13970D01*
Y13208D01*
X16507D01*
X16254Y13462D01*
X16507Y13716D01*
X17269D01*
X17777Y13208D02*
Y14224D01*
X18031D01*
X18285Y13970D01*
Y13208D01*
Y13970D01*
X18539Y14224D01*
X18793Y13970D01*
Y13208D01*
X19301D02*
Y14224D01*
X19554D01*
X19808Y13970D01*
Y13208D01*
Y13970D01*
X20062Y14224D01*
X20316Y13970D01*
Y13208D01*
X21586D02*
X21078D01*
X20824Y13462D01*
Y13970D01*
X21078Y14224D01*
X21586D01*
X21840Y13970D01*
Y13716D01*
X20824D01*
X22348Y14224D02*
Y13208D01*
Y13716D01*
X22601Y13970D01*
X22855Y14224D01*
X23109D01*
X57759Y26416D02*
X57252D01*
X56998Y26162D01*
Y25146D01*
X57252Y24892D01*
X57759D01*
X58013Y25146D01*
Y26162D01*
X57759Y26416D01*
X58521Y24892D02*
X59283D01*
X59537Y25146D01*
X59283Y25400D01*
X58775D01*
X58521Y25654D01*
X58775Y25908D01*
X59537D01*
X61060D02*
X60299D01*
X60045Y25654D01*
Y25146D01*
X60299Y24892D01*
X61060D01*
X61568D02*
X62076D01*
X61822D01*
Y25908D01*
X61568D01*
X62838Y24892D02*
X63346D01*
X63092D01*
Y26416D01*
X62838D01*
X64107Y24892D02*
X64615D01*
X64361D01*
Y26416D01*
X64107D01*
X65631Y25908D02*
X66139D01*
X66393Y25654D01*
Y24892D01*
X65631D01*
X65377Y25146D01*
X65631Y25400D01*
X66393D01*
X67154Y26162D02*
Y25908D01*
X66900D01*
X67408D01*
X67154D01*
Y25146D01*
X67408Y24892D01*
X68424D02*
X68932D01*
X69186Y25146D01*
Y25654D01*
X68932Y25908D01*
X68424D01*
X68170Y25654D01*
Y25146D01*
X68424Y24892D01*
X69693Y25908D02*
Y24892D01*
Y25400D01*
X69947Y25654D01*
X70201Y25908D01*
X70455D01*
X94640Y14249D02*
Y12725D01*
X95656D01*
X97180Y13995D02*
X96926Y14249D01*
X96418D01*
X96164Y13995D01*
Y13741D01*
X96418Y13487D01*
X96926D01*
X97180Y13233D01*
Y12979D01*
X96926Y12725D01*
X96418D01*
X96164Y12979D01*
X86131Y18389D02*
Y16866D01*
X87147D01*
X88671Y18135D02*
X88417Y18389D01*
X87909D01*
X87655Y18135D01*
Y17120D01*
X87909Y16866D01*
X88417D01*
X88671Y17120D01*
X89178Y18389D02*
Y16866D01*
X89940D01*
X90194Y17120D01*
Y18135D01*
X89940Y18389D01*
X89178D01*
X90702Y16866D02*
X91464D01*
X91718Y17120D01*
X91464Y17373D01*
X90956D01*
X90702Y17627D01*
X90956Y17881D01*
X91718D01*
X93241D02*
X92479D01*
X92225Y17627D01*
Y17120D01*
X92479Y16866D01*
X93241D01*
X93749Y17881D02*
Y16866D01*
Y17373D01*
X94003Y17627D01*
X94257Y17881D01*
X94511D01*
X96034Y16866D02*
X95526D01*
X95272Y17120D01*
Y17627D01*
X95526Y17881D01*
X96034D01*
X96288Y17627D01*
Y17373D01*
X95272D01*
X97558Y16866D02*
X97050D01*
X96796Y17120D01*
Y17627D01*
X97050Y17881D01*
X97558D01*
X97812Y17627D01*
Y17373D01*
X96796D01*
X98319Y16866D02*
Y17881D01*
X99081D01*
X99335Y17627D01*
Y16866D01*
X31293Y19862D02*
Y18339D01*
X32055D01*
X32308Y18593D01*
Y19608D01*
X32055Y19862D01*
X31293D01*
X33832Y18339D02*
X32816D01*
X33832Y19354D01*
Y19608D01*
X33578Y19862D01*
X33070D01*
X32816Y19608D01*
X18339Y76911D02*
Y75387D01*
X19101D01*
X19354Y75641D01*
Y76657D01*
X19101Y76911D01*
X18339D01*
X19862Y75387D02*
X20370D01*
X20116D01*
Y76911D01*
X19862Y76657D01*
X50571Y39471D02*
X50317Y39725D01*
X49809D01*
X49555Y39471D01*
Y38456D01*
X49809Y38202D01*
X50317D01*
X50571Y38456D01*
X51333Y38202D02*
X51841D01*
X52095Y38456D01*
Y38963D01*
X51841Y39217D01*
X51333D01*
X51079Y38963D01*
Y38456D01*
X51333Y38202D01*
X52602D02*
Y39217D01*
X52856D01*
X53110Y38963D01*
Y38202D01*
Y38963D01*
X53364Y39217D01*
X53618Y38963D01*
Y38202D01*
X54126Y37694D02*
Y39217D01*
X54888D01*
X55142Y38963D01*
Y38456D01*
X54888Y38202D01*
X54126D01*
X55903D02*
X56411D01*
X56665Y38456D01*
Y38963D01*
X56411Y39217D01*
X55903D01*
X55649Y38963D01*
Y38456D01*
X55903Y38202D01*
X57173D02*
X57935D01*
X58189Y38456D01*
X57935Y38709D01*
X57427D01*
X57173Y38963D01*
X57427Y39217D01*
X58189D01*
X58950Y39471D02*
Y39217D01*
X58696D01*
X59204D01*
X58950D01*
Y38456D01*
X59204Y38202D01*
X59966Y39725D02*
X60474D01*
X60220D01*
Y38202D01*
X59966D01*
X60474D01*
X61490Y39471D02*
Y39217D01*
X61236D01*
X61743D01*
X61490D01*
Y38456D01*
X61743Y38202D01*
X4978Y52552D02*
X4724Y52806D01*
X4216D01*
X3962Y52552D01*
Y51537D01*
X4216Y51283D01*
X4724D01*
X4978Y51537D01*
X5486Y52552D02*
X5740Y52806D01*
X6248D01*
X6502Y52552D01*
Y52298D01*
X6248Y52044D01*
X5994D01*
X6248D01*
X6502Y51790D01*
Y51537D01*
X6248Y51283D01*
X5740D01*
X5486Y51537D01*
X66954Y18516D02*
X66700Y18770D01*
X66192D01*
X65938Y18516D01*
Y17501D01*
X66192Y17247D01*
X66700D01*
X66954Y17501D01*
X68478Y17247D02*
X67462D01*
X68478Y18262D01*
Y18516D01*
X68224Y18770D01*
X67716D01*
X67462Y18516D01*
X51460Y18897D02*
X51206Y19151D01*
X50698D01*
X50444Y18897D01*
Y17882D01*
X50698Y17628D01*
X51206D01*
X51460Y17882D01*
X51968Y17628D02*
X52476D01*
X52222D01*
Y19151D01*
X51968Y18897D01*
X4724Y81889D02*
Y80366D01*
X5486D01*
X5740Y80620D01*
Y80873D01*
Y81127D01*
X5486Y81381D01*
X4724D01*
X6502D02*
X7010D01*
X7264Y81127D01*
Y80366D01*
X6502D01*
X6248Y80620D01*
X6502Y80873D01*
X7264D01*
X8025Y81635D02*
Y81381D01*
X7771D01*
X8279D01*
X8025D01*
Y80620D01*
X8279Y80366D01*
X9295Y81635D02*
Y81381D01*
X9041D01*
X9549D01*
X9295D01*
Y80620D01*
X9549Y80366D01*
X11072D02*
X10565D01*
X10311Y80620D01*
Y81127D01*
X10565Y81381D01*
X11072D01*
X11326Y81127D01*
Y80873D01*
X10311D01*
X11834Y81381D02*
Y80366D01*
Y80873D01*
X12088Y81127D01*
X12342Y81381D01*
X12596D01*
X13358D02*
Y80620D01*
X13612Y80366D01*
X14373D01*
Y80112D01*
X14119Y79858D01*
X13865D01*
X14373Y80366D02*
Y81381D01*
X16405Y81889D02*
Y80366D01*
Y81127D01*
X16659Y81381D01*
X17166D01*
X17420Y81127D01*
Y80366D01*
X18182D02*
X18690D01*
X18944Y80620D01*
Y81127D01*
X18690Y81381D01*
X18182D01*
X17928Y81127D01*
Y80620D01*
X18182Y80366D01*
X19452D02*
X19959D01*
X19706D01*
Y81889D01*
X19452D01*
X21737D02*
Y80366D01*
X20975D01*
X20721Y80620D01*
Y81127D01*
X20975Y81381D01*
X21737D01*
X23006Y80366D02*
X22499D01*
X22245Y80620D01*
Y81127D01*
X22499Y81381D01*
X23006D01*
X23260Y81127D01*
Y80873D01*
X22245D01*
X23768Y81381D02*
Y80366D01*
Y80873D01*
X24022Y81127D01*
X24276Y81381D01*
X24530D01*
M02*
