G04*
G04 #@! TF.GenerationSoftware,Altium Limited,Altium Designer,22.1.2 (22)*
G04*
G04 Layer_Color=65535*
%FSLAX43Y43*%
%MOMM*%
G71*
G04*
G04 #@! TF.SameCoordinates,87715656-2F0B-43DF-9688-F49D06068116*
G04*
G04*
G04 #@! TF.FilePolarity,Positive*
G04*
G01*
G75*
%ADD10C,0.200*%
%ADD11C,0.250*%
%ADD12C,0.127*%
%ADD13C,0.254*%
D10*
X16307Y28448D02*
G03*
X16307Y28448I-100J0D01*
G01*
X3447Y27940D02*
G03*
X3447Y27940I-100J0D01*
G01*
X33528Y30861D02*
Y35941D01*
X30988D02*
X33528D01*
X30988Y30861D02*
Y35941D01*
Y30861D02*
X33528D01*
X14986Y36449D02*
Y37211D01*
X9906D02*
X14986D01*
X9906Y35687D02*
Y37211D01*
Y35687D02*
X14986D01*
Y36449D01*
X9677D02*
X9906D01*
X14986D02*
X15215D01*
X21336Y35687D02*
Y36449D01*
Y35687D02*
X26416D01*
Y37211D01*
X21336D02*
X26416D01*
X21336Y36449D02*
Y37211D01*
X26416Y36449D02*
X26645D01*
X21107D02*
X21336D01*
X9906Y32131D02*
Y32893D01*
Y32131D02*
X14986D01*
Y33655D01*
X9906D02*
X14986D01*
X9906Y32893D02*
Y33655D01*
X14986Y32893D02*
X15215D01*
X9677D02*
X9906D01*
X21463Y32004D02*
Y32766D01*
Y32004D02*
X26543D01*
Y33528D01*
X21463D02*
X26543D01*
X21463Y32766D02*
Y33528D01*
X26543Y32766D02*
X26772D01*
X21234D02*
X21463D01*
X34671Y25781D02*
X35433D01*
X34671Y20701D02*
Y25781D01*
Y20701D02*
X36195D01*
Y25781D01*
X35433D02*
X36195D01*
X35433Y20472D02*
Y20701D01*
Y25781D02*
Y26010D01*
X28191Y20698D02*
Y26038D01*
X30991Y20698D02*
Y26038D01*
X28191Y20698D02*
X30991D01*
X28191Y26038D02*
X30991D01*
X22098Y18415D02*
X25908D01*
Y6985D02*
Y18415D01*
X22098Y6985D02*
X25908D01*
X22098D02*
Y18415D01*
X14859Y14224D02*
X18669D01*
Y2794D02*
Y14224D01*
X14859Y2794D02*
X18669D01*
X14859D02*
Y14224D01*
X2794D02*
X6604D01*
Y2794D02*
Y14224D01*
X2794Y2794D02*
X6604D01*
X2794D02*
Y14224D01*
X27813Y3683D02*
Y4445D01*
X22733D02*
X27813D01*
X22733Y2921D02*
Y4445D01*
Y2921D02*
X27813D01*
Y3683D01*
X22504D02*
X22733D01*
X27813D02*
X28042D01*
X8509Y14224D02*
X12319D01*
Y2794D02*
Y14224D01*
X8509Y2794D02*
X12319D01*
X8509D02*
Y14224D01*
D11*
X31766Y24638D02*
G03*
X31766Y24638I-125J0D01*
G01*
D12*
X35599Y12774D02*
G03*
X35599Y15674I0J1450D01*
G01*
X18067Y29433D02*
X24417D01*
X18067Y19843D02*
X24417D01*
X5207Y28925D02*
X11557D01*
X5207Y19335D02*
X11557D01*
X28099Y12024D02*
Y16424D01*
X34499D01*
Y12024D02*
Y16424D01*
X28099Y12024D02*
X34499D01*
Y15674D02*
X35599D01*
X34499Y12774D02*
X35599D01*
D13*
X17656Y41021D02*
X18164Y40005D01*
X18672Y41021D01*
X19434Y40005D02*
X19942D01*
X20195Y40259D01*
Y40767D01*
X19942Y41021D01*
X19434D01*
X19180Y40767D01*
Y40259D01*
X19434Y40005D01*
X20703D02*
X21211D01*
X20957D01*
Y41529D01*
X20703D01*
X22227Y41275D02*
Y41021D01*
X21973D01*
X22481D01*
X22227D01*
Y40259D01*
X22481Y40005D01*
X23496Y41021D02*
X24004D01*
X24258Y40767D01*
Y40005D01*
X23496D01*
X23242Y40259D01*
X23496Y40513D01*
X24258D01*
X25274Y39497D02*
X25528D01*
X25782Y39751D01*
Y41021D01*
X25020D01*
X24766Y40767D01*
Y40259D01*
X25020Y40005D01*
X25782D01*
X27051D02*
X26543D01*
X26289Y40259D01*
Y40767D01*
X26543Y41021D01*
X27051D01*
X27305Y40767D01*
Y40513D01*
X26289D01*
X29337Y40005D02*
X30098D01*
X30352Y40259D01*
X30098Y40513D01*
X29590D01*
X29337Y40767D01*
X29590Y41021D01*
X30352D01*
X31114Y40005D02*
X31622D01*
X31876Y40259D01*
Y40767D01*
X31622Y41021D01*
X31114D01*
X30860Y40767D01*
Y40259D01*
X31114Y40005D01*
X32384Y41021D02*
Y40259D01*
X32637Y40005D01*
X33399D01*
Y41021D01*
X33907D02*
Y40005D01*
Y40513D01*
X34161Y40767D01*
X34415Y41021D01*
X34669D01*
X36446D02*
X35684D01*
X35431Y40767D01*
Y40259D01*
X35684Y40005D01*
X36446D01*
X37716D02*
X37208D01*
X36954Y40259D01*
Y40767D01*
X37208Y41021D01*
X37716D01*
X37970Y40767D01*
Y40513D01*
X36954D01*
X14224Y29464D02*
Y28194D01*
X14478Y27940D01*
X14986D01*
X15240Y28194D01*
Y29464D01*
X3404Y31496D02*
Y30226D01*
X3658Y29972D01*
X4165D01*
X4419Y30226D01*
Y31496D01*
X4927Y29972D02*
X5435D01*
X5181D01*
Y31496D01*
X4927Y31242D01*
X34823Y28626D02*
Y30149D01*
X35585D01*
X35839Y29895D01*
Y29388D01*
X35585Y29134D01*
X34823D01*
X35331D02*
X35839Y28626D01*
X37363Y30149D02*
X36855Y29895D01*
X36347Y29388D01*
Y28880D01*
X36601Y28626D01*
X37109D01*
X37363Y28880D01*
Y29134D01*
X37109Y29388D01*
X36347D01*
X20853Y5309D02*
Y6832D01*
X21615D01*
X21869Y6578D01*
Y6070D01*
X21615Y5816D01*
X20853D01*
X21361D02*
X21869Y5309D01*
X23393Y6832D02*
X22377D01*
Y6070D01*
X22885Y6324D01*
X23139D01*
X23393Y6070D01*
Y5563D01*
X23139Y5309D01*
X22631D01*
X22377Y5563D01*
X19456Y38075D02*
Y39598D01*
X20218D01*
X20472Y39344D01*
Y38836D01*
X20218Y38582D01*
X19456D01*
X19964D02*
X20472Y38075D01*
X21742D02*
Y39598D01*
X20980Y38836D01*
X21996D01*
X19583Y34392D02*
Y35915D01*
X20345D01*
X20599Y35661D01*
Y35153D01*
X20345Y34899D01*
X19583D01*
X20091D02*
X20599Y34392D01*
X21107Y35661D02*
X21361Y35915D01*
X21869D01*
X22123Y35661D01*
Y35407D01*
X21869Y35153D01*
X21615D01*
X21869D01*
X22123Y34899D01*
Y34646D01*
X21869Y34392D01*
X21361D01*
X21107Y34646D01*
X8077Y38075D02*
Y39598D01*
X8839D01*
X9093Y39344D01*
Y38836D01*
X8839Y38582D01*
X8077D01*
X8585D02*
X9093Y38075D01*
X10616D02*
X9601D01*
X10616Y39090D01*
Y39344D01*
X10362Y39598D01*
X9855D01*
X9601Y39344D01*
X8077Y34519D02*
Y36042D01*
X8839D01*
X9093Y35788D01*
Y35280D01*
X8839Y35026D01*
X8077D01*
X8585D02*
X9093Y34519D01*
X9601D02*
X10109D01*
X9855D01*
Y36042D01*
X9601Y35788D01*
X28346Y28422D02*
Y26899D01*
X29362D01*
X30886Y28168D02*
X30632Y28422D01*
X30124D01*
X29870Y28168D01*
Y27914D01*
X30124Y27660D01*
X30632D01*
X30886Y27406D01*
Y27153D01*
X30632Y26899D01*
X30124D01*
X29870Y27153D01*
X26264Y16230D02*
Y14707D01*
X27025D01*
X27279Y14961D01*
Y15976D01*
X27025Y16230D01*
X26264D01*
X23266Y20548D02*
X23012Y20802D01*
X22504D01*
X22250Y20548D01*
Y19533D01*
X22504Y19279D01*
X23012D01*
X23266Y19533D01*
X24536Y19279D02*
Y20802D01*
X23774Y20040D01*
X24790D01*
X9677Y16357D02*
X9423Y16611D01*
X8915D01*
X8661Y16357D01*
Y15342D01*
X8915Y15088D01*
X9423D01*
X9677Y15342D01*
X10185Y16357D02*
X10439Y16611D01*
X10947D01*
X11201Y16357D01*
Y16103D01*
X10947Y15849D01*
X10693D01*
X10947D01*
X11201Y15595D01*
Y15342D01*
X10947Y15088D01*
X10439D01*
X10185Y15342D01*
X16027Y16357D02*
X15773Y16611D01*
X15265D01*
X15011Y16357D01*
Y15342D01*
X15265Y15088D01*
X15773D01*
X16027Y15342D01*
X17551Y15088D02*
X16535D01*
X17551Y16103D01*
Y16357D01*
X17297Y16611D01*
X16789D01*
X16535Y16357D01*
X3962D02*
X3708Y16611D01*
X3200D01*
X2946Y16357D01*
Y15342D01*
X3200Y15088D01*
X3708D01*
X3962Y15342D01*
X4470Y15088D02*
X4978D01*
X4724D01*
Y16611D01*
X4470Y16357D01*
M02*
